<svg xmlns="http://www.w3.org/2000/svg" width="720" height="240" viewBox="0 0 720 240" font-family="monospace" font-size="11">
<rect x="0" y="0" width="720" height="240" fill="none"/>
<line x1="56" y1="16" x2="56" y2="212" stroke="#8b949e" stroke-width="1"/>
<line x1="56" y1="212" x2="704" y2="212" stroke="#8b949e" stroke-width="1"/>
<line x1="56" y1="114.0" x2="704" y2="114.0" stroke="#8b949e" stroke-width="1" stroke-dasharray="4 3" opacity="0.7"/>
<text x="50" y="20.0" text-anchor="end" fill="#8b949e">$100,001</text>
<text x="50" y="212.0" text-anchor="end" fill="#8b949e">$99,999</text>
<text x="56" y="232" fill="#8b949e">2026-07-07</text>
<text x="704" y="232" text-anchor="end" fill="#8b949e">2026-09-16</text>
<polyline points="56.0,114.0 69.2,114.0 82.4,114.0 95.7,114.0 108.9,114.0 122.1,114.0 135.3,114.0 148.6,114.0 161.8,114.0 175.0,114.0 188.2,114.0 201.5,114.0 214.7,114.0 227.9,114.0 241.1,114.0 254.4,114.0 267.6,114.0 280.8,114.0 294.0,114.0 307.3,114.0 320.5,114.0 333.7,114.0 346.9,114.0 360.2,114.0 373.4,114.0 386.6,114.0 399.8,114.0 413.1,114.0 426.3,114.0 439.5,114.0 452.7,114.0 466.0,114.0 479.2,114.0 492.4,114.0 505.6,114.0 518.9,114.0 532.1,114.0 545.3,114.0 558.5,114.0 571.8,114.0 585.0,114.0 598.2,114.0 611.4,114.0 624.7,114.0 637.9,114.0 651.1,114.0 664.3,114.0 677.6,114.0 690.8,114.0 704.0,114.0" fill="none" stroke="#2da44e" stroke-width="2"/>
</svg>